<?xml version="1.0" encoding="UTF-8"?>
<svg id="Layer_1" data-name="Layer 1" xmlns="http://www.w3.org/2000/svg" xmlns:xlink="http://www.w3.org/1999/xlink" version="1.1" viewBox="0 0 1000 1000">
  <defs>
    <style>
      .cls-1 {
        fill: url(#linear-gradient);
      }

      .cls-1, .cls-2, .cls-3 {
        stroke-width: 0px;
      }

      .cls-4 {
        font-family: Montserrat-SemiBold, Montserrat;
        font-size: 104.97px;
        font-weight: 600;
        letter-spacing: .2em;
      }

      .cls-4, .cls-5 {
        fill: #5ac7da;
      }

      .cls-2 {
        fill: url(#linear-gradient-2);
      }

      .cls-3 {
        fill: url(#linear-gradient-3);
      }

      .cls-5 {
        font-family: Montserrat-Medium, Montserrat;
        font-size: 54.63px;
        font-weight: 500;
        letter-spacing: .2em;
      }
    </style>
    <linearGradient id="linear-gradient" x1="583.88" y1="305.86" x2="365.75" y2="785.75" gradientUnits="userSpaceOnUse">
      <stop offset=".07" stop-color="#5ac7da"/>
      <stop offset="1" stop-color="#5561ac"/>
    </linearGradient>
    <linearGradient id="linear-gradient-2" x1="228.01" y1="285.35" x2="762.36" y2="285.35" xlink:href="#linear-gradient"/>
    <linearGradient id="linear-gradient-3" x1="654.27" y1="530.56" x2="651.15" y2="537.42" gradientUnits="userSpaceOnUse">
      <stop offset=".12" stop-color="#023047"/>
      <stop offset="1" stop-color="#010101"/>
    </linearGradient>
  </defs>
  <g>
    <text class="cls-4" transform="translate(73.94 710.65)"><tspan x="0" y="0">Messing Up</tspan></text>
    <text class="cls-5" transform="translate(294.78 778.55)"><tspan x="0" y="0">Enterprise</tspan></text>
  </g>
  <g>
    <path class="cls-1" d="M668.84,521.49c-4.09,4.09-8.69,7.8-13.67,11.04h54.7c2.02-3.48,3.57-7.19,4.61-11.04h-45.63ZM680.26,497.1c1.13,3.2,1.08,6.72-.33,10.01h36.04v-10.01h-35.72ZM651.59,534.79c-2.44,1.5-5.03,2.91-7.71,4.14v7.99h-14.38v-2.49c-5.17,1.6-10.57,2.68-15.98,3.24-26.69,2.91-53.67-4.7-71.81-21.1-7.24-6.49-6.77-17.06,1.03-23.03,3.01-2.26,6.11-4.42,9.35-6.44h-6.49v-14.38h39.48c6.25-1.79,12.64-3.05,19.13-3.9,17.62-2.16,35.72-.75,52.63,3.9h58.74c-.75-3.71-2.58-7.14-5.26-9.96h-106.21v-14.38h46.29l-8.32-1.27c-35.1-5.31-71.34-1.13-103.57,12.08l-43.33,17.72-43.33-17.72c-32.28-13.2-68.47-17.39-103.57-12.08l-53.53,8.18c-11.8,1.79-20.35,10.71-20.35,21.15v23.78c0,16.17,9.02,31.3,24.2,40.56l34.07,20.82c35.53,21.71,83.23,19.78,116.31-4.65l46.19-34.21,46.19,34.21c33.08,24.44,80.78,26.36,116.26,4.65l2.91-1.79h-78.06v-14.38h101.65l7.61-4.65c1.97-1.18,3.81-2.49,5.59-3.85h-45.77v-12.12ZM582.04,458.38h14.38v14.38h-14.38v-14.38ZM448.62,526.56c-18.14,16.4-45.07,24.01-71.76,21.1-26.5-2.87-51.55-17.67-65.04-37.88-5.4-8.13-1.83-18.61,7.94-22.51,20.63-8.18,43.94-11.23,66.36-8.46,22.65,2.87,44.22,11.61,61.47,24.72,7.85,5.97,8.27,16.54,1.03,23.03ZM523.53,482.72h14.38v14.38h-14.38v-14.38ZM574.8,569.8h-14.38v-14.38h14.38v14.38Z"/>
    <path class="cls-2" d="M762.17,357.9c.33-2.68.23-5.55-.33-8.51h-110.25v-14.38h104.56c-2.63-4.18-5.87-7.85-9.63-11.09h-147.47v-14.38h122.65c-12.03-4.79-25-7.8-36.28-9.96h-139.81v-14.38h122.75c-1.32-3.34-2.68-6.63-4-9.96h-60.25v-14.38h54.51c-1.36-3.34-2.68-6.63-3.99-9.96h-79.33v-14.38h73.55c-1.32-3.34-2.68-6.67-3.99-10.01h-33.13v-14.38h27.4c-5.36-13.35-10.67-26.65-16.02-39.99-5.55-13.82-12.12-28.9-24.58-34.68-18.42-8.65-38.21,7.33-52.4,23.07-12.83,14.15-29.56,28.34-48.5,30.26-22.37,2.3-38.49-13.77-53.39-30.26-14.24-15.74-34.02-31.72-52.4-23.07-12.45,5.78-19.08,20.87-24.58,34.68-16.73,41.78-33.46,83.51-50.14,125.29-26.32,4.51-72.75,12.64-86.05,43.52-13.02,30.22,18.23,47.6,38.44,54.61,79.28,27.49,165.23,44.32,248.41,39.24,68.42-4.18,137.36-16.54,202.92-39.24,11.75-4.09,27.26-11.65,35.62-23.26h-173.97v-14.38h179.66ZM629.5,335.02h14.38v14.38h-14.38v-14.38ZM582.04,260.86h14.38v14.38h-14.38v-14.38ZM589.65,212.13h14.38v14.38h-14.38v-14.38ZM553.23,236.52h14.38v14.38h-14.38v-14.38ZM537.91,299.58h-14.38v-14.38h14.38v14.38ZM574.8,372.28h-14.38v-14.38h14.38v14.38ZM576.96,323.93v-14.38h14.38v14.38h-14.38Z"/>
    <path class="cls-3" d="M655.16,532.53c-1.18.8-2.35,1.55-3.57,2.26v-2.26h3.57Z"/>
  </g>
</svg>